<?xml version="1.0" standalone="no"?>
<!DOCTYPE svg PUBLIC "-//W3C//DTD SVG 20010904//EN"
 "http://www.w3.org/TR/2001/REC-SVG-20010904/DTD/svg10.dtd">
<svg version="1.0" xmlns="http://www.w3.org/2000/svg"
 width="256.000000pt" height="256.000000pt" viewBox="0 0 256.000000 256.000000"
 preserveAspectRatio="xMidYMid meet">
<metadata>
Created by potrace 1.11, written by Peter Selinger 2001-2013
</metadata>
<g transform="translate(0.000000,256.000000) scale(0.100000,-0.100000)"
fill="#000000" stroke="none">
<path d="M1120 2134 c-344 -74 -591 -305 -683 -639 -35 -128 -30 -331 12 -472
35 -118 119 -257 213 -352 205 -208 492 -297 788 -245 51 9 145 42 218 77 211
100 394 324 451 552 7 28 15 59 18 70 13 47 10 256 -3 321 -66 317 -290 566
-595 663 -133 42 -295 52 -419 25z m208 -341 c21 -38 148 -247 281 -466 133
-219 244 -404 247 -411 6 -16 -96 -80 -108 -68 -4 4 -48 73 -96 153 l-88 144
-283 0 -284 0 -83 -135 c-119 -194 -100 -178 -162 -140 -29 17 -52 35 -52 39
0 6 18 38 67 117 7 10 46 75 88 144 42 69 132 217 201 330 68 113 146 240 171
283 26 42 50 77 54 77 4 0 25 -30 47 -67z"/>
<path d="M1181 1450 c-50 -83 -91 -154 -91 -158 0 -4 85 -7 190 -7 104 0 190
4 190 8 0 13 -182 307 -190 307 -4 0 -48 -68 -99 -150z"/>
</g>
</svg>
